<?xml version="1.0" encoding="UTF-8" ?>
<svg version="1.1" width="270" height="72" xmlns="http://www.w3.org/2000/svg" shape-rendering="crispEdges">
<rect x="144" y="0" width="8" height="4" fill="#000000" />
<rect x="142" y="2" width="2" height="12" fill="#000000" />
<rect x="152" y="2" width="2" height="14" fill="#000000" />
<rect x="140" y="4" width="2" height="10" fill="#000000" />
<rect x="144" y="4" width="2" height="2" fill="#000000" />
<rect x="146" y="4" width="4" height="2" fill="#EEC39A" />
<rect x="150" y="4" width="2" height="10" fill="#000000" />
<rect x="144" y="6" width="4" height="2" fill="#EEC39A" />
<rect x="148" y="6" width="2" height="2" fill="#8F563B" />
<rect x="144" y="8" width="4" height="2" fill="#8F563B" />
<rect x="148" y="8" width="2" height="6" fill="#000000" />
<rect x="26" y="10" width="6" height="4" fill="#000000" />
<rect x="36" y="10" width="16" height="4" fill="#000000" />
<rect x="68" y="10" width="16" height="4" fill="#000000" />
<rect x="114" y="10" width="16" height="4" fill="#000000" />
<rect x="136" y="10" width="4" height="4" fill="#000000" />
<rect x="144" y="10" width="4" height="4" fill="#000000" />
<rect x="158" y="10" width="8" height="4" fill="#000000" />
<rect x="182" y="10" width="16" height="4" fill="#000000" />
<rect x="202" y="10" width="8" height="4" fill="#000000" />
<rect x="214" y="10" width="8" height="4" fill="#000000" />
<rect x="224" y="10" width="8" height="4" fill="#000000" />
<rect x="248" y="10" width="14" height="4" fill="#000000" />
<rect x="24" y="12" width="2" height="12" fill="#000000" />
<rect x="32" y="12" width="2" height="6" fill="#000000" />
<rect x="66" y="12" width="2" height="6" fill="#000000" />
<rect x="84" y="12" width="4" height="4" fill="#000000" />
<rect x="112" y="12" width="2" height="6" fill="#000000" />
<rect x="130" y="12" width="2" height="26" fill="#000000" />
<rect x="134" y="12" width="2" height="54" fill="#000000" />
<rect x="154" y="12" width="4" height="26" fill="#000000" />
<rect x="166" y="12" width="2" height="18" fill="#000000" />
<rect x="180" y="12" width="2" height="6" fill="#000000" />
<rect x="198" y="12" width="4" height="24" fill="#000000" />
<rect x="210" y="12" width="4" height="18" fill="#000000" />
<rect x="222" y="12" width="2" height="26" fill="#000000" />
<rect x="232" y="12" width="2" height="18" fill="#000000" />
<rect x="246" y="12" width="2" height="6" fill="#000000" />
<rect x="262" y="12" width="2" height="6" fill="#000000" />
<rect x="26" y="14" width="2" height="4" fill="#000000" />
<rect x="30" y="14" width="2" height="4" fill="#000000" />
<rect x="38" y="14" width="6" height="2" fill="#000000" />
<rect x="64" y="14" width="2" height="14" fill="#000000" />
<rect x="68" y="14" width="2" height="2" fill="#000000" />
<rect x="70" y="14" width="12" height="12" fill="#EEC39A" />
<rect x="82" y="14" width="2" height="2" fill="#000000" />
<rect x="88" y="14" width="2" height="8" fill="#000000" />
<rect x="110" y="14" width="2" height="22" fill="#000000" />
<rect x="114" y="14" width="2" height="2" fill="#000000" />
<rect x="116" y="14" width="12" height="4" fill="#EEC39A" />
<rect x="128" y="14" width="2" height="2" fill="#000000" />
<rect x="132" y="14" width="2" height="24" fill="#000000" />
<rect x="136" y="14" width="2" height="2" fill="#000000" />
<rect x="138" y="14" width="14" height="4" fill="#EEC39A" />
<rect x="158" y="14" width="2" height="54" fill="#000000" />
<rect x="160" y="14" width="4" height="20" fill="#EEC39A" />
<rect x="164" y="14" width="2" height="16" fill="#000000" />
<rect x="178" y="14" width="2" height="22" fill="#000000" />
<rect x="182" y="14" width="2" height="2" fill="#000000" />
<rect x="184" y="14" width="12" height="4" fill="#EEC39A" />
<rect x="196" y="14" width="2" height="2" fill="#000000" />
<rect x="202" y="14" width="2" height="22" fill="#000000" />
<rect x="204" y="14" width="4" height="16" fill="#EEC39A" />
<rect x="208" y="14" width="2" height="14" fill="#000000" />
<rect x="214" y="14" width="2" height="14" fill="#000000" />
<rect x="216" y="14" width="4" height="16" fill="#EEC39A" />
<rect x="220" y="14" width="2" height="22" fill="#000000" />
<rect x="224" y="14" width="2" height="26" fill="#000000" />
<rect x="226" y="14" width="4" height="20" fill="#EEC39A" />
<rect x="230" y="14" width="2" height="16" fill="#000000" />
<rect x="244" y="14" width="2" height="22" fill="#000000" />
<rect x="248" y="14" width="2" height="2" fill="#000000" />
<rect x="250" y="14" width="10" height="4" fill="#EEC39A" />
<rect x="260" y="14" width="2" height="2" fill="#000000" />
<rect x="264" y="14" width="2" height="22" fill="#000000" />
<rect x="22" y="16" width="2" height="16" fill="#000000" />
<rect x="40" y="16" width="6" height="2" fill="#000000" />
<rect x="62" y="16" width="2" height="10" fill="#000000" />
<rect x="68" y="16" width="2" height="10" fill="#EEC39A" />
<rect x="82" y="16" width="4" height="42" fill="#EEC39A" />
<rect x="86" y="16" width="2" height="2" fill="#000000" />
<rect x="90" y="16" width="2" height="10" fill="#000000" />
<rect x="108" y="16" width="2" height="18" fill="#000000" />
<rect x="114" y="16" width="2" height="16" fill="#EEC39A" />
<rect x="128" y="16" width="2" height="4" fill="#EEC39A" />
<rect x="136" y="16" width="2" height="18" fill="#EEC39A" />
<rect x="152" y="16" width="2" height="18" fill="#EEC39A" />
<rect x="176" y="16" width="2" height="26" fill="#000000" />
<rect x="182" y="16" width="2" height="16" fill="#EEC39A" />
<rect x="196" y="16" width="2" height="4" fill="#EEC39A" />
<rect x="242" y="16" width="2" height="22" fill="#000000" />
<rect x="248" y="16" width="2" height="16" fill="#EEC39A" />
<rect x="260" y="16" width="2" height="16" fill="#EEC39A" />
<rect x="266" y="16" width="2" height="18" fill="#000000" />
<rect x="42" y="18" width="6" height="2" fill="#000000" />
<rect x="66" y="18" width="2" height="6" fill="#EEC39A" />
<rect x="86" y="18" width="2" height="38" fill="#EEC39A" />
<rect x="112" y="18" width="2" height="12" fill="#EEC39A" />
<rect x="116" y="18" width="2" height="2" fill="#EEC39A" />
<rect x="118" y="18" width="8" height="2" fill="#8F563B" />
<rect x="126" y="18" width="2" height="2" fill="#EEC39A" />
<rect x="138" y="18" width="4" height="2" fill="#EEC39A" />
<rect x="142" y="18" width="6" height="2" fill="#8F563B" />
<rect x="148" y="18" width="4" height="2" fill="#EEC39A" />
<rect x="180" y="18" width="2" height="12" fill="#EEC39A" />
<rect x="184" y="18" width="2" height="2" fill="#EEC39A" />
<rect x="186" y="18" width="8" height="2" fill="#8F563B" />
<rect x="194" y="18" width="2" height="2" fill="#EEC39A" />
<rect x="246" y="18" width="2" height="12" fill="#EEC39A" />
<rect x="250" y="18" width="2" height="2" fill="#EEC39A" />
<rect x="252" y="18" width="6" height="2" fill="#8F563B" />
<rect x="258" y="18" width="2" height="2" fill="#EEC39A" />
<rect x="262" y="18" width="2" height="12" fill="#EEC39A" />
<rect x="40" y="20" width="6" height="2" fill="#000000" />
<rect x="92" y="20" width="2" height="10" fill="#000000" />
<rect x="116" y="20" width="2" height="2" fill="#8F563B" />
<rect x="118" y="20" width="8" height="4" fill="#000000" />
<rect x="126" y="20" width="4" height="2" fill="#8F563B" />
<rect x="138" y="20" width="2" height="14" fill="#EEC39A" />
<rect x="140" y="20" width="2" height="2" fill="#8F563B" />
<rect x="142" y="20" width="6" height="4" fill="#000000" />
<rect x="148" y="20" width="2" height="2" fill="#8F563B" />
<rect x="150" y="20" width="2" height="14" fill="#EEC39A" />
<rect x="184" y="20" width="2" height="2" fill="#8F563B" />
<rect x="186" y="20" width="8" height="4" fill="#000000" />
<rect x="194" y="20" width="4" height="2" fill="#8F563B" />
<rect x="250" y="20" width="2" height="2" fill="#8F563B" />
<rect x="252" y="20" width="6" height="4" fill="#000000" />
<rect x="258" y="20" width="2" height="2" fill="#8F563B" />
<rect x="20" y="22" width="2" height="20" fill="#000000" />
<rect x="38" y="22" width="6" height="6" fill="#000000" />
<rect x="88" y="22" width="2" height="30" fill="#EEC39A" />
<rect x="116" y="22" width="2" height="6" fill="#000000" />
<rect x="126" y="22" width="4" height="6" fill="#000000" />
<rect x="140" y="22" width="2" height="2" fill="#000000" />
<rect x="148" y="22" width="2" height="2" fill="#000000" />
<rect x="184" y="22" width="2" height="6" fill="#000000" />
<rect x="194" y="22" width="4" height="6" fill="#000000" />
<rect x="250" y="22" width="2" height="6" fill="#000000" />
<rect x="258" y="22" width="2" height="6" fill="#000000" />
<rect x="36" y="24" width="2" height="4" fill="#000000" />
<rect x="44" y="24" width="8" height="4" fill="#000000" />
<rect x="66" y="24" width="2" height="6" fill="#000000" />
<rect x="94" y="24" width="2" height="26" fill="#000000" />
<rect x="118" y="24" width="2" height="6" fill="#000000" />
<rect x="124" y="24" width="2" height="6" fill="#000000" />
<rect x="140" y="24" width="10" height="4" fill="#EEC39A" />
<rect x="186" y="24" width="2" height="6" fill="#000000" />
<rect x="192" y="24" width="2" height="6" fill="#000000" />
<rect x="252" y="24" width="2" height="6" fill="#000000" />
<rect x="256" y="24" width="2" height="6" fill="#000000" />
<rect x="68" y="26" width="4" height="6" fill="#000000" />
<rect x="72" y="26" width="4" height="2" fill="#EEC39A" />
<rect x="76" y="26" width="4" height="4" fill="#000000" />
<rect x="80" y="26" width="2" height="34" fill="#EEC39A" />
<rect x="90" y="26" width="2" height="22" fill="#EEC39A" />
<rect x="120" y="26" width="4" height="4" fill="#000000" />
<rect x="168" y="26" width="8" height="4" fill="#000000" />
<rect x="188" y="26" width="4" height="4" fill="#000000" />
<rect x="234" y="26" width="8" height="4" fill="#000000" />
<rect x="254" y="26" width="2" height="4" fill="#000000" />
<rect x="72" y="28" width="4" height="4" fill="#000000" />
<rect x="116" y="28" width="2" height="6" fill="#EEC39A" />
<rect x="126" y="28" width="4" height="4" fill="#EEC39A" />
<rect x="140" y="28" width="10" height="2" fill="#8F563B" />
<rect x="184" y="28" width="2" height="6" fill="#EEC39A" />
<rect x="194" y="28" width="4" height="4" fill="#EEC39A" />
<rect x="208" y="28" width="2" height="6" fill="#EEC39A" />
<rect x="214" y="28" width="2" height="6" fill="#EEC39A" />
<rect x="250" y="28" width="2" height="6" fill="#EEC39A" />
<rect x="258" y="28" width="2" height="6" fill="#EEC39A" />
<rect x="18" y="30" width="2" height="22" fill="#000000" />
<rect x="30" y="30" width="8" height="4" fill="#000000" />
<rect x="42" y="30" width="8" height="4" fill="#000000" />
<rect x="76" y="30" width="2" height="18" fill="#000000" />
<rect x="78" y="30" width="2" height="14" fill="#EEC39A" />
<rect x="92" y="30" width="2" height="14" fill="#EEC39A" />
<rect x="96" y="30" width="2" height="18" fill="#000000" />
<rect x="112" y="30" width="2" height="2" fill="#8F563B" />
<rect x="118" y="30" width="8" height="4" fill="#EEC39A" />
<rect x="140" y="30" width="10" height="4" fill="#000000" />
<rect x="164" y="30" width="10" height="4" fill="#EEC39A" />
<rect x="174" y="30" width="2" height="12" fill="#000000" />
<rect x="180" y="30" width="2" height="2" fill="#8F563B" />
<rect x="186" y="30" width="8" height="4" fill="#EEC39A" />
<rect x="204" y="30" width="2" height="2" fill="#8F563B" />
<rect x="206" y="30" width="2" height="2" fill="#EEC39A" />
<rect x="210" y="30" width="4" height="4" fill="#EEC39A" />
<rect x="216" y="30" width="2" height="2" fill="#EEC39A" />
<rect x="218" y="30" width="2" height="2" fill="#8F563B" />
<rect x="230" y="30" width="10" height="4" fill="#EEC39A" />
<rect x="240" y="30" width="2" height="10" fill="#000000" />
<rect x="246" y="30" width="2" height="2" fill="#8F563B" />
<rect x="252" y="30" width="6" height="4" fill="#EEC39A" />
<rect x="262" y="30" width="2" height="2" fill="#8F563B" />
<rect x="28" y="32" width="2" height="12" fill="#000000" />
<rect x="38" y="32" width="4" height="12" fill="#000000" />
<rect x="50" y="32" width="2" height="12" fill="#000000" />
<rect x="74" y="32" width="2" height="14" fill="#000000" />
<rect x="112" y="32" width="2" height="10" fill="#000000" />
<rect x="114" y="32" width="2" height="2" fill="#8F563B" />
<rect x="126" y="32" width="2" height="2" fill="#EEC39A" />
<rect x="128" y="32" width="2" height="2" fill="#8F563B" />
<rect x="180" y="32" width="2" height="6" fill="#000000" />
<rect x="182" y="32" width="2" height="2" fill="#8F563B" />
<rect x="194" y="32" width="2" height="2" fill="#EEC39A" />
<rect x="196" y="32" width="2" height="2" fill="#8F563B" />
<rect x="204" y="32" width="2" height="6" fill="#000000" />
<rect x="206" y="32" width="2" height="2" fill="#8F563B" />
<rect x="216" y="32" width="2" height="2" fill="#8F563B" />
<rect x="218" y="32" width="2" height="6" fill="#000000" />
<rect x="246" y="32" width="2" height="6" fill="#000000" />
<rect x="248" y="32" width="2" height="2" fill="#8F563B" />
<rect x="260" y="32" width="2" height="2" fill="#8F563B" />
<rect x="262" y="32" width="2" height="6" fill="#000000" />
<rect x="26" y="34" width="2" height="8" fill="#000000" />
<rect x="30" y="34" width="2" height="2" fill="#000000" />
<rect x="36" y="34" width="2" height="2" fill="#000000" />
<rect x="42" y="34" width="2" height="2" fill="#000000" />
<rect x="48" y="34" width="2" height="2" fill="#000000" />
<rect x="52" y="34" width="2" height="8" fill="#000000" />
<rect x="114" y="34" width="2" height="8" fill="#000000" />
<rect x="116" y="34" width="12" height="2" fill="#8F563B" />
<rect x="128" y="34" width="2" height="10" fill="#000000" />
<rect x="136" y="34" width="4" height="2" fill="#8F563B" />
<rect x="140" y="34" width="4" height="8" fill="#000000" />
<rect x="146" y="34" width="4" height="8" fill="#000000" />
<rect x="150" y="34" width="4" height="2" fill="#8F563B" />
<rect x="160" y="34" width="14" height="2" fill="#8F563B" />
<rect x="182" y="34" width="2" height="34" fill="#000000" />
<rect x="184" y="34" width="12" height="2" fill="#8F563B" />
<rect x="196" y="34" width="2" height="8" fill="#000000" />
<rect x="206" y="34" width="2" height="34" fill="#000000" />
<rect x="208" y="34" width="8" height="2" fill="#8F563B" />
<rect x="216" y="34" width="2" height="6" fill="#000000" />
<rect x="226" y="34" width="14" height="2" fill="#8F563B" />
<rect x="248" y="34" width="2" height="6" fill="#000000" />
<rect x="250" y="34" width="10" height="2" fill="#8F563B" />
<rect x="260" y="34" width="2" height="6" fill="#000000" />
<rect x="116" y="36" width="12" height="6" fill="#000000" />
<rect x="136" y="36" width="4" height="6" fill="#000000" />
<rect x="150" y="36" width="4" height="6" fill="#000000" />
<rect x="160" y="36" width="14" height="4" fill="#000000" />
<rect x="184" y="36" width="12" height="6" fill="#000000" />
<rect x="198" y="36" width="2" height="6" fill="#000000" />
<rect x="208" y="36" width="8" height="6" fill="#000000" />
<rect x="226" y="36" width="14" height="4" fill="#000000" />
<rect x="250" y="36" width="10" height="4" fill="#000000" />
<rect x="110" y="38" width="2" height="30" fill="#000000" />
<rect x="144" y="38" width="2" height="4" fill="#000000" />
<rect x="154" y="38" width="2" height="30" fill="#000000" />
<rect x="178" y="38" width="2" height="30" fill="#000000" />
<rect x="200" y="38" width="2" height="6" fill="#000000" />
<rect x="16" y="40" width="2" height="18" fill="#000000" />
<rect x="30" y="40" width="2" height="6" fill="#000000" />
<rect x="36" y="40" width="2" height="6" fill="#000000" />
<rect x="42" y="40" width="2" height="6" fill="#000000" />
<rect x="48" y="40" width="2" height="6" fill="#000000" />
<rect x="108" y="40" width="2" height="26" fill="#000000" />
<rect x="130" y="40" width="2" height="28" fill="#000000" />
<rect x="156" y="40" width="2" height="26" fill="#000000" />
<rect x="160" y="40" width="8" height="2" fill="#000000" />
<rect x="170" y="40" width="4" height="10" fill="#000000" />
<rect x="180" y="40" width="2" height="26" fill="#000000" />
<rect x="202" y="40" width="4" height="26" fill="#000000" />
<rect x="32" y="42" width="4" height="4" fill="#000000" />
<rect x="44" y="42" width="4" height="4" fill="#000000" />
<rect x="68" y="42" width="6" height="4" fill="#000000" />
<rect x="112" y="42" width="16" height="4" fill="#EEC39A" />
<rect x="132" y="42" width="2" height="24" fill="#000000" />
<rect x="136" y="42" width="2" height="2" fill="#000000" />
<rect x="138" y="42" width="16" height="4" fill="#EEC39A" />
<rect x="160" y="42" width="4" height="20" fill="#EEC39A" />
<rect x="164" y="42" width="6" height="2" fill="#000000" />
<rect x="174" y="42" width="4" height="20" fill="#EEC39A" />
<rect x="184" y="42" width="2" height="2" fill="#000000" />
<rect x="186" y="42" width="14" height="4" fill="#EEC39A" />
<rect x="208" y="42" width="4" height="20" fill="#EEC39A" />
<rect x="212" y="42" width="4" height="16" fill="#000000" />
<rect x="66" y="44" width="2" height="6" fill="#000000" />
<rect x="78" y="44" width="2" height="4" fill="#000000" />
<rect x="92" y="44" width="2" height="10" fill="#000000" />
<rect x="128" y="44" width="2" height="6" fill="#EEC39A" />
<rect x="136" y="44" width="2" height="16" fill="#EEC39A" />
<rect x="164" y="44" width="2" height="6" fill="#EEC39A" />
<rect x="166" y="44" width="4" height="2" fill="#000000" />
<rect x="184" y="44" width="2" height="18" fill="#EEC39A" />
<rect x="200" y="44" width="2" height="18" fill="#EEC39A" />
<rect x="64" y="46" width="2" height="14" fill="#000000" />
<rect x="68" y="46" width="4" height="2" fill="#000000" />
<rect x="72" y="46" width="4" height="14" fill="#EEC39A" />
<rect x="112" y="46" width="4" height="16" fill="#EEC39A" />
<rect x="116" y="46" width="10" height="2" fill="#8F563B" />
<rect x="126" y="46" width="2" height="6" fill="#EEC39A" />
<rect x="138" y="46" width="2" height="16" fill="#EEC39A" />
<rect x="140" y="46" width="14" height="2" fill="#8F563B" />
<rect x="166" y="46" width="2" height="6" fill="#EEC39A" />
<rect x="168" y="46" width="2" height="2" fill="#000000" />
<rect x="186" y="46" width="4" height="2" fill="#EEC39A" />
<rect x="190" y="46" width="6" height="2" fill="#8F563B" />
<rect x="196" y="46" width="4" height="2" fill="#EEC39A" />
<rect x="26" y="48" width="6" height="6" fill="#000000" />
<rect x="40" y="48" width="4" height="4" fill="#000000" />
<rect x="50" y="48" width="4" height="4" fill="#000000" />
<rect x="62" y="48" width="2" height="10" fill="#000000" />
<rect x="68" y="48" width="4" height="10" fill="#EEC39A" />
<rect x="76" y="48" width="4" height="12" fill="#EEC39A" />
<rect x="90" y="48" width="2" height="10" fill="#000000" />
<rect x="116" y="48" width="10" height="2" fill="#000000" />
<rect x="140" y="48" width="14" height="2" fill="#000000" />
<rect x="168" y="48" width="2" height="6" fill="#EEC39A" />
<rect x="186" y="48" width="2" height="14" fill="#EEC39A" />
<rect x="188" y="48" width="2" height="2" fill="#8F563B" />
<rect x="190" y="48" width="6" height="4" fill="#000000" />
<rect x="196" y="48" width="2" height="2" fill="#8F563B" />
<rect x="198" y="48" width="2" height="14" fill="#EEC39A" />
<rect x="14" y="50" width="2" height="10" fill="#000000" />
<rect x="38" y="50" width="2" height="4" fill="#000000" />
<rect x="44" y="50" width="2" height="10" fill="#000000" />
<rect x="48" y="50" width="2" height="6" fill="#000000" />
<rect x="66" y="50" width="2" height="6" fill="#EEC39A" />
<rect x="116" y="50" width="10" height="4" fill="#EEC39A" />
<rect x="128" y="50" width="2" height="2" fill="#8F563B" />
<rect x="140" y="50" width="14" height="4" fill="#EEC39A" />
<rect x="164" y="50" width="2" height="2" fill="#8F563B" />
<rect x="170" y="50" width="2" height="6" fill="#EEC39A" />
<rect x="172" y="50" width="2" height="2" fill="#000000" />
<rect x="188" y="50" width="2" height="2" fill="#000000" />
<rect x="196" y="50" width="2" height="2" fill="#000000" />
<rect x="24" y="52" width="2" height="12" fill="#000000" />
<rect x="32" y="52" width="2" height="12" fill="#000000" />
<rect x="40" y="52" width="2" height="2" fill="#000000" />
<rect x="46" y="52" width="2" height="10" fill="#000000" />
<rect x="50" y="52" width="2" height="2" fill="#000000" />
<rect x="88" y="52" width="2" height="8" fill="#000000" />
<rect x="126" y="52" width="2" height="2" fill="#8F563B" />
<rect x="128" y="52" width="2" height="6" fill="#000000" />
<rect x="164" y="52" width="2" height="16" fill="#000000" />
<rect x="166" y="52" width="2" height="2" fill="#8F563B" />
<rect x="172" y="52" width="2" height="6" fill="#EEC39A" />
<rect x="188" y="52" width="10" height="4" fill="#EEC39A" />
<rect x="4" y="54" width="4" height="4" fill="#000000" />
<rect x="26" y="54" width="2" height="4" fill="#000000" />
<rect x="30" y="54" width="2" height="4" fill="#000000" />
<rect x="116" y="54" width="4" height="2" fill="#8F563B" />
<rect x="120" y="54" width="6" height="2" fill="#EEC39A" />
<rect x="126" y="54" width="2" height="2" fill="#000000" />
<rect x="140" y="54" width="14" height="2" fill="#8F563B" />
<rect x="166" y="54" width="2" height="12" fill="#000000" />
<rect x="168" y="54" width="2" height="2" fill="#8F563B" />
<rect x="216" y="54" width="8" height="4" fill="#000000" />
<rect x="8" y="56" width="2" height="6" fill="#000000" />
<rect x="12" y="56" width="2" height="6" fill="#000000" />
<rect x="22" y="56" width="2" height="8" fill="#000000" />
<rect x="34" y="56" width="2" height="8" fill="#000000" />
<rect x="42" y="56" width="2" height="6" fill="#000000" />
<rect x="66" y="56" width="2" height="6" fill="#000000" />
<rect x="86" y="56" width="2" height="6" fill="#000000" />
<rect x="116" y="56" width="4" height="10" fill="#000000" />
<rect x="120" y="56" width="2" height="2" fill="#8F563B" />
<rect x="122" y="56" width="6" height="2" fill="#EEC39A" />
<rect x="140" y="56" width="14" height="2" fill="#000000" />
<rect x="168" y="56" width="2" height="6" fill="#000000" />
<rect x="170" y="56" width="2" height="2" fill="#8F563B" />
<rect x="188" y="56" width="10" height="2" fill="#8F563B" />
<rect x="224" y="56" width="2" height="10" fill="#000000" />
<rect x="6" y="58" width="2" height="2" fill="#000000" />
<rect x="10" y="58" width="2" height="4" fill="#000000" />
<rect x="40" y="58" width="2" height="6" fill="#000000" />
<rect x="50" y="58" width="4" height="4" fill="#000000" />
<rect x="68" y="58" width="2" height="6" fill="#000000" />
<rect x="70" y="58" width="2" height="2" fill="#EEC39A" />
<rect x="82" y="58" width="4" height="4" fill="#000000" />
<rect x="120" y="58" width="2" height="6" fill="#000000" />
<rect x="122" y="58" width="2" height="2" fill="#8F563B" />
<rect x="124" y="58" width="6" height="2" fill="#EEC39A" />
<rect x="140" y="58" width="14" height="4" fill="#EEC39A" />
<rect x="170" y="58" width="2" height="8" fill="#000000" />
<rect x="172" y="58" width="2" height="2" fill="#8F563B" />
<rect x="188" y="58" width="10" height="4" fill="#000000" />
<rect x="212" y="58" width="10" height="4" fill="#EEC39A" />
<rect x="222" y="58" width="2" height="10" fill="#000000" />
<rect x="26" y="60" width="6" height="4" fill="#000000" />
<rect x="38" y="60" width="2" height="4" fill="#000000" />
<rect x="48" y="60" width="2" height="4" fill="#000000" />
<rect x="70" y="60" width="12" height="4" fill="#000000" />
<rect x="122" y="60" width="2" height="6" fill="#000000" />
<rect x="124" y="60" width="2" height="2" fill="#8F563B" />
<rect x="126" y="60" width="4" height="2" fill="#EEC39A" />
<rect x="136" y="60" width="2" height="2" fill="#8F563B" />
<rect x="172" y="60" width="2" height="8" fill="#000000" />
<rect x="50" y="62" width="2" height="2" fill="#000000" />
<rect x="82" y="62" width="2" height="2" fill="#000000" />
<rect x="112" y="62" width="4" height="2" fill="#8F563B" />
<rect x="124" y="62" width="2" height="6" fill="#000000" />
<rect x="126" y="62" width="4" height="2" fill="#8F563B" />
<rect x="136" y="62" width="2" height="6" fill="#000000" />
<rect x="138" y="62" width="16" height="2" fill="#8F563B" />
<rect x="160" y="62" width="4" height="2" fill="#8F563B" />
<rect x="174" y="62" width="4" height="2" fill="#8F563B" />
<rect x="184" y="62" width="4" height="2" fill="#8F563B" />
<rect x="188" y="62" width="4" height="4" fill="#000000" />
<rect x="194" y="62" width="4" height="4" fill="#000000" />
<rect x="198" y="62" width="4" height="2" fill="#8F563B" />
<rect x="208" y="62" width="14" height="2" fill="#8F563B" />
<rect x="112" y="64" width="4" height="4" fill="#000000" />
<rect x="126" y="64" width="4" height="4" fill="#000000" />
<rect x="138" y="64" width="16" height="4" fill="#000000" />
<rect x="160" y="64" width="4" height="4" fill="#000000" />
<rect x="174" y="64" width="4" height="4" fill="#000000" />
<rect x="184" y="64" width="4" height="4" fill="#000000" />
<rect x="198" y="64" width="4" height="4" fill="#000000" />
<rect x="208" y="64" width="14" height="4" fill="#000000" />
<rect x="116" y="66" width="2" height="2" fill="#000000" />
<rect x="188" y="66" width="2" height="2" fill="#000000" />
<rect x="196" y="66" width="2" height="2" fill="#000000" />
<rect x="202" y="66" width="2" height="2" fill="#000000" />
</svg>